<?xml version="1.0" standalone="no"?>
<!DOCTYPE svg PUBLIC "-//W3C//DTD SVG 20010904//EN"
 "http://www.w3.org/TR/2001/REC-SVG-20010904/DTD/svg10.dtd">
<svg version="1.0" xmlns="http://www.w3.org/2000/svg"
 width="341.000000pt" height="341.000000pt" viewBox="0 0 341.000000 341.000000"
 preserveAspectRatio="xMidYMid meet">
<metadata>
Created by potrace 1.14, written by Peter Selinger 2001-2017
</metadata>
<g transform="translate(0.000000,341.000000) scale(0.100000,-0.100000)"
fill="#000000" stroke="none">
<path d="M2073 3390 c-33 -20 -173 -64 -233 -75 -19 -3 -104 -9 -187 -12 -204
-8 -350 15 -465 73 -26 13 -49 24 -51 24 -3 0 -7 -19 -11 -42 -23 -140 -192
-253 -451 -302 -44 -9 -95 -17 -114 -20 -38 -5 -59 -20 -42 -30 6 -4 11 -15
11 -25 0 -26 45 -63 75 -63 15 0 38 5 51 13 20 10 29 10 44 1 26 -16 72 -15
95 2 16 11 23 11 49 -5 l31 -18 3 -171 3 -170 -56 0 -55 0 0 -74 0 -74 -177
-105 c-218 -129 -228 -136 -214 -150 6 -6 11 -17 11 -25 0 -19 46 -62 68 -63
35 -3 58 4 84 23 16 11 28 14 28 8 0 -15 59 -39 85 -34 21 4 21 1 24 -203 1
-114 4 -210 7 -215 3 -5 -46 -32 -108 -62 -219 -104 -303 -143 -336 -157 -36
-16 -46 -35 -36 -73 15 -62 104 -87 148 -43 l23 23 27 -23 c35 -29 88 -28 121
3 22 20 25 21 39 5 13 -14 16 -94 22 -561 6 -509 10 -745 13 -762 2 -10 2168
10 2224 21 4 0 5 211 1 469 -3 257 -7 547 -8 646 -2 177 -2 179 21 201 l24 22
46 -23 c52 -24 95 -18 113 17 10 17 11 17 34 -4 38 -35 90 -34 127 3 24 23 30
37 27 62 -3 30 -8 35 -73 61 -126 51 -339 139 -370 153 -17 7 -42 17 -57 23
l-26 10 -2 123 c-1 68 -2 167 -3 221 l-2 97 43 -6 c35 -5 49 -2 71 14 27 19
28 19 52 1 37 -28 85 -24 120 10 16 16 29 37 29 45 0 9 7 16 15 16 27 0 16 29
-17 44 -18 8 -85 39 -148 68 -63 30 -145 67 -182 83 -74 33 -68 20 -71 142 -1
28 -5 55 -10 59 -4 4 -32 6 -62 5 -47 -2 -55 1 -56 16 -1 10 -2 87 -3 171 l-3
153 36 15 c27 11 41 13 53 5 25 -15 70 -14 94 3 17 12 22 12 39 0 42 -31 110
-4 117 46 2 14 7 28 12 31 19 14 -8 29 -51 29 -210 0 -437 119 -606 318 -31
37 -31 37 -74 12z"/>
</g>
</svg>
